<?xml version="1.0" encoding="utf-8"?>
<!-- Generator: Adobe Illustrator 24.0.0, SVG Export Plug-In . SVG Version: 6.00 Build 0)  -->
<svg version="1.1" id="Layer_1" xmlns="http://www.w3.org/2000/svg" xmlns:xlink="http://www.w3.org/1999/xlink" x="0px" y="0px"
	 viewBox="0 0 256 256" style="enable-background:new 0 0 256 256;" xml:space="preserve">
<style type="text/css">
	.st0{fill:#FFB69F;}
	.st1{fill:#72C2E9;}
	.st2{fill:#C2E5FF;}
	.st3{fill:#FC5D3D;}
	.st4{fill:#AFAFAF;}
	.st5{fill:#FFCBC3;}
	.st6{fill:#F0C020;}
	.st7{fill:#F8E5B0;}
	.st8{fill:#EFEFEF;}
	.st9{fill:#EEC21E;}
	.st10{fill:#FFFFFF;}
	.st11{fill:#F1BF21;}
	.st12{fill:#E8A61E;}
	.st13{fill:#7D7B79;}
	.st14{fill:#B34F33;}
	.st15{fill:#F8E5B2;}
	.st16{fill:#C5E5FE;}
	.st17{fill:#4C4944;}
	.st18{fill:#4BA5C8;}
	.st19{fill:#AFAEAF;}
	.st20{fill:#CF941C;}
	.st21{fill:#7C7B7A;}
	.st22{fill:#FAE0E1;}
	.st23{fill:#13BF6D;}
	.st24{fill:#76FFBB;}
	.st25{fill:#F2E1D7;}
	.st26{fill:#878787;}
	.st27{fill:#F9E5AF;}
	.st28{fill:#E8A61F;}
	.st29{fill:none;stroke:#000000;stroke-width:5;stroke-linecap:round;stroke-linejoin:round;stroke-miterlimit:10;}
	.st30{fill:#EFEFF0;}
	.st31{fill:#E8A61B;}
	.st32{fill:#EFEFEE;}
	.st33{fill:#4C4945;}
	.st34{fill:#EA8F7D;}
	.st35{fill:#D6C0B3;}
	.st36{fill:#EEC120;}
</style>
<g>
</g>
<g>
	<g>
		<g>
			<path class="st19" d="M133.035,9.659l9.479,22.186c1.514,3.543,6.114,4.458,8.868,1.764l17.248-16.87
				c3.447-3.372,9.255-0.966,9.308,3.856l0.267,24.125c0.043,3.852,3.943,6.458,7.518,5.023l22.391-8.985
				c4.475-1.796,8.92,2.649,7.124,7.124l-8.985,22.391c-1.435,3.575,1.171,7.475,5.023,7.518l24.125,0.267
				c4.822,0.053,7.228,5.861,3.856,9.308l-16.87,17.248c-2.694,2.754-1.779,7.355,1.764,8.868l22.186,9.479
				c4.434,1.895,4.434,8.181,0,10.075l-22.186,9.479c-3.543,1.514-4.458,6.114-1.764,8.868l16.87,17.248
				c3.372,3.447,0.966,9.255-3.856,9.308l-24.125,0.267c-3.852,0.043-6.458,3.943-5.023,7.518l8.985,22.391
				c1.796,4.475-2.649,8.92-7.124,7.124l-22.391-8.985c-3.575-1.435-7.475,1.171-7.518,5.023l-0.267,24.125
				c-0.053,4.822-5.861,7.228-9.308,3.856l-17.248-16.87c-2.754-2.694-7.355-1.779-8.868,1.764l-9.479,22.186
				c-1.895,4.434-8.181,4.434-10.075,0l-9.479-22.186c-1.514-3.543-6.114-4.458-8.868-1.764l-17.248,16.87
				c-3.447,3.372-9.255,0.966-9.308-3.856l-0.267-24.125c-0.043-3.852-3.943-6.458-7.518-5.023l-22.391,8.985
				c-4.475,1.796-8.92-2.649-7.124-7.124l8.985-22.391c1.435-3.575-1.171-7.475-5.023-7.518l-24.125-0.267
				c-4.822-0.053-7.228-5.861-3.856-9.308l16.87-17.248c2.694-2.754,1.779-7.355-1.764-8.868l-22.186-9.479
				c-4.434-1.895-4.434-8.181,0-10.075l22.186-9.479c3.543-1.514,4.458-6.114,1.764-8.868l-16.87-17.248
				c-3.372-3.447-0.966-9.255,3.856-9.308l24.125-0.267c3.852-0.043,6.458-3.943,5.023-7.518l-8.985-22.391
				c-1.796-4.475,2.649-8.92,7.124-7.124l22.391,8.985c3.575,1.435,7.475-1.171,7.518-5.023l0.267-24.125
				c0.053-4.822,5.861-7.228,9.308-3.856l17.248,16.87c2.754,2.694,7.355,1.779,8.868-1.764l9.479-22.186
				C124.855,5.225,131.141,5.225,133.035,9.659z"/>
		</g>
		<g>
			<circle class="st21" cx="127.998" cy="128" r="80.667"/>
		</g>
		<g>
			<path class="st19" d="M196.498,128c0,13.06-3.66,25.27-10,35.66c0,0.01-0.01,0.01-0.01,0.02c-5.68,9.3-13.51,17.13-22.81,22.81
				c-0.01,0-0.01,0.01-0.02,0.01c-10.39,6.34-22.6,10-35.66,10s-25.27-3.66-35.66-10c-0.01,0-0.01-0.01-0.02-0.01
				c-9.3-5.68-17.13-13.51-22.81-22.81c0-0.01-0.01-0.01-0.01-0.02c-6.34-10.39-10-22.6-10-35.66s3.66-25.27,10-35.66
				c0-0.01,0.01-0.01,0.01-0.02c5.68-9.3,13.51-17.13,22.81-22.81c0.01,0,0.01-0.01,0.02-0.01c10.39-6.34,22.6-10,35.66-10
				s25.27,3.66,35.66,10c0.01,0,0.01,0.01,0.02,0.01c9.3,5.68,17.13,13.51,22.81,22.81c0,0.01,0.01,0.01,0.01,0.02
				C192.838,102.73,196.498,114.94,196.498,128z"/>
		</g>
		<g>
			<circle class="st10" cx="127.998" cy="128" r="23"/>
		</g>
		<g>
			<path class="st21" d="M186.498,92.34l-17.24,10.84l-16.44-16.44l10.84-17.24c0.01,0,0.01,0.01,0.02,0.01
				c9.3,5.68,17.13,13.51,22.81,22.81C186.488,92.33,186.498,92.33,186.498,92.34z"/>
		</g>
		<g>
			<path class="st21" d="M103.178,169.26l-10.84,17.24c-0.01,0-0.01-0.01-0.02-0.01c-9.3-5.68-17.13-13.51-22.81-22.81
				c0-0.01-0.01-0.01-0.01-0.02l17.24-10.84L103.178,169.26z"/>
		</g>
		<g>
			<path class="st21" d="M186.498,163.66c0,0.01-0.01,0.01-0.01,0.02c-5.68,9.3-13.51,17.13-22.81,22.81
				c-0.01,0-0.01,0.01-0.02,0.01l-10.84-17.24l16.44-16.44L186.498,163.66z"/>
		</g>
		<g>
			<path class="st21" d="M103.178,86.74l-16.44,16.44l-17.24-10.84c0-0.01,0.01-0.01,0.01-0.02c5.68-9.3,13.51-17.13,22.81-22.81
				c0.01,0,0.01-0.01,0.02-0.01L103.178,86.74z"/>
		</g>
		<g>
			<path class="st21" d="M137.498,90.75V96c-6.35-1.88-12.99-1.78-19,0v-5.25c0-5.25,4.25-9.5,9.5-9.5
				C133.228,81.25,137.498,85.48,137.498,90.75z"/>
		</g>
		<g>
			<path class="st21" d="M137.498,160v5.25c0,5.25-4.25,9.5-9.5,9.5c-5.25,0-9.5-4.25-9.5-9.5V160
				C124.848,161.88,131.488,161.78,137.498,160z"/>
		</g>
		<g>
			<path class="st21" d="M95.998,137.5h-5.25c-5.25,0-9.5-4.25-9.5-9.5s4.25-9.5,9.5-9.5h5.25
				C94.118,124.86,94.228,131.5,95.998,137.5z"/>
		</g>
		<g>
			<path class="st21" d="M174.748,128c0,5.23-4.22,9.5-9.5,9.5h-5.25c1.88-6.36,1.77-13,0-19h5.25
				C170.498,118.5,174.748,122.75,174.748,128z"/>
		</g>
	</g>
	<g>
		<path d="M94.198,116h-3.445c-6.617,0-12,5.383-12,12s5.383,12,12,12h3.445c3.616,10.218,11.586,18.188,21.805,21.805v3.445
			c0,6.617,5.383,12,12,12c6.617,0,12-5.383,12-12v-3.445c10.218-3.616,18.189-11.587,21.805-21.805h3.445c6.617,0,12-5.383,12-12
			s-5.383-12-12-12h-3.445c-3.616-10.218-11.586-18.188-21.805-21.805V90.75c0-6.617-5.383-12-12-12c-6.617,0-12,5.383-12,12v3.445
			C105.785,97.811,97.815,105.781,94.198,116z M90.752,135c-3.859,0-7-3.14-7-7s3.141-7,7-7h2.062
			c-0.925,4.659-0.878,9.567,0.001,14H90.752z M135.002,165.25c0,3.86-3.141,7-7,7c-3.859,0-7-3.14-7-7v-2.06
			c4.598,0.916,9.335,0.929,14,0V165.25z M165.252,121c3.859,0,7,3.14,7,7s-3.141,7-7,7h-2.062c0.901-4.539,0.903-9.436-0.001-14
			H165.252z M158.879,128c0.002,17.139-13.866,30.879-30.875,30.88c-13.63,0-25.69-8.893-29.604-22.087
			c-1.695-5.747-1.702-11.827,0-17.584c0,0,0-0.001,0-0.001c4.003-13.489,16.291-22.088,29.601-22.088
			C144.969,97.12,158.876,110.81,158.879,128z M121.002,90.75c0-3.86,3.141-7,7-7c3.859,0,7,3.14,7,7v2.06
			c-4.376-0.871-9.259-0.944-14,0V90.75z"/>
		<path d="M247.322,120.66l-22.18-9.48c-1.967-0.843-2.402-3.325-0.96-4.82l16.87-17.25c4.886-4.953,1.414-13.465-5.62-13.55
			l-24.12-0.27c-2.046,0-3.549-2.119-2.729-4.08l8.979-22.4c2.593-6.44-3.784-12.995-10.38-10.37l-22.38,8.98
			c-1.958,0.793-4.09-0.65-4.09-2.73l-0.271-24.12c-0.093-7.042-8.572-10.507-13.56-5.62l-17.24,16.87
			c-1.511,1.459-3.996,0.985-4.83-0.96l-9.47-22.18c-2.74-6.466-11.939-6.466-14.68,0l-9.48,22.18
			c-0.802,1.896-3.279,2.449-4.82,0.96L89.122,14.95c-4.97-4.867-13.464-1.455-13.561,5.62l-0.27,24.12
			c0,2.058-2.123,3.529-4.09,2.73l-22.391-8.98c-6.498-2.641-13.022,3.928-10.37,10.37l8.98,22.39c0.799,1.927-0.644,4.09-2.73,4.09
			l-24.12,0.27c-7.097,0.095-10.477,8.626-5.619,13.55l16.869,17.25c1.465,1.516,0.977,4.007-0.96,4.82l-22.18,9.48
			c-6.479,2.74-6.466,11.946,0,14.68l22.18,9.48c1.9,0.805,2.447,3.282,0.96,4.82l-16.869,17.24
			c-4.861,4.927-1.476,13.463,5.609,13.56l24.13,0.27c2.072,0,3.526,2.12,2.73,4.09l-8.98,22.39
			c-2.591,6.249,3.61,13.137,10.591,10.28c1.268-0.491,1.91-1.959,1.39-3.25c-0.45-1.124-1.808-1.979-3.47-1.3
			c-2.48,0.976-4.848-1.467-3.881-3.86l8.99-22.4c2.077-5.104-1.602-10.871-7.31-10.95l-24.13-0.27
			c-2.554-0.014-3.97-3.111-2.101-5.05l16.88-17.26c3.889-3.969,2.623-10.692-2.569-12.91l-22.19-9.48
			c-2.414-1.059-2.419-4.419,0-5.48l22.19-9.48c5.176-2.21,6.468-8.931,2.569-12.91L18.533,85.62
			c-1.899-1.963-0.448-5.046,2.09-5.06l24.13-0.27c5.666-0.079,9.394-5.816,7.31-10.94l-8.979-22.4
			c-1.011-2.398,1.453-4.886,3.87-3.87l22.39,8.98c5.158,2.093,10.871-1.657,10.95-7.31l0.27-24.13
			c0.013-2.561,3.13-3.954,5.061-2.09l17.239,16.87c3.993,3.886,10.694,2.623,12.921-2.57l9.479-22.19
			c1.058-2.416,4.413-2.415,5.48,0l9.479,22.19c2.203,5.181,8.907,6.464,12.91,2.57l17.25-16.87c1.921-1.859,5.046-0.48,5.06,2.1
			l0.271,24.12c0.079,5.656,5.75,9.374,10.939,7.32l22.4-8.99c2.376-0.96,4.842,1.342,3.87,3.88l-8.98,22.38
			c-2.102,5.178,1.676,10.871,7.311,10.95l24.13,0.27c2.548,0.013,3.961,3.126,2.09,5.06l-16.87,17.25
			c-3.853,3.906-2.676,10.67,2.57,12.91l22.189,9.48c2.413,1.065,2.417,4.413,0,5.48l-22.189,9.48
			c-5.271,2.251-6.408,9.019-2.57,12.91l16.87,17.25c1.873,1.938,0.46,5.046-2.09,5.06l-24.13,0.27
			c-5.663,0.078-9.411,5.784-7.311,10.96l8.98,22.38c0.985,2.506-1.506,4.833-3.87,3.87l-22.39-8.98
			c-5.061-2.057-10.869,1.548-10.95,7.31l-0.271,24.13c-0.013,2.558-3.118,3.945-5.06,2.1l-17.25-16.88
			c-3.975-3.895-10.711-2.611-12.91,2.58l-9.479,22.18c-1.059,2.414-4.42,2.42-5.48,0l-9.479-22.19
			c-2.195-5.162-8.944-6.481-12.921-2.56l-17.239,16.86c-1.926,1.86-5.047,0.476-5.061-2.09l-0.27-24.13
			c-0.08-5.742-5.891-9.387-10.95-7.31l-3.61,1.45c-1.279,0.51-1.91,1.97-1.39,3.25c0.516,1.29,1.97,1.903,3.25,1.39
			c3.396-1.364,3.847-1.67,4.72-1.67c1.641,0,2.98,1.32,2.98,2.95l0.27,24.12c0.097,7.068,8.613,10.492,13.55,5.62l17.25-16.87
			c1.459-1.433,3.971-1.023,4.82,0.96l9.48,22.18c2.72,6.453,11.934,6.481,14.68,0l9.47-22.18c0.844-1.966,3.336-2.402,4.83-0.96
			l17.24,16.87c4.983,4.884,13.466,1.421,13.56-5.62l0.271-24.12c0-2.07,2.123-3.529,4.09-2.73l22.39,8.98
			c6.536,2.623,12.976-3.901,10.37-10.37l-8.979-22.39c-0.821-2.021,0.706-4.09,2.729-4.09l24.12-0.27
			c7.041-0.096,10.514-8.566,5.62-13.56l-16.87-17.24c-0.56-0.58-0.85-1.27-0.85-2.07c0.01-1.25,0.68-2.27,1.81-2.75l22.18-9.48
			C253.788,132.607,253.786,123.393,247.322,120.66z"/>
		<path d="M56.453,209.11c-1.328,0.535-1.891,2.01-1.391,3.25c0.516,1.291,1.969,1.901,3.25,1.39c1.28-0.51,1.9-1.97,1.391-3.25
			C59.203,209.25,57.712,208.6,56.453,209.11z"/>
		<path d="M118.862,104.19c-1.279,0.49-1.93,1.94-1.43,3.23c0.47,1.24,1.97,1.91,3.23,1.43c2.34-0.89,4.81-1.35,7.34-1.35
			c11.28,0.02,20.479,9.22,20.5,20.5c-0.021,11.28-9.22,20.48-20.5,20.5c-11.28-0.02-20.48-9.22-20.5-20.5
			c0-2.32,0.38-4.59,1.14-6.75c0.45-1.3-0.24-2.73-1.54-3.18c-1.28-0.45-2.75,0.27-3.189,1.54
			c-5.763,16.483,6.545,33.89,24.09,33.89c14.091,0,25.5-11.408,25.5-25.5c0-6.81-2.65-13.22-7.47-18.03
			c-4.82-4.82-11.221-7.47-18.03-7.47C124.852,102.5,121.783,103.07,118.862,104.19z"/>
		<path d="M113.283,113.73c0.96-0.981,0.952-2.56-0.051-3.54c-0.96-0.93-2.609-0.9-3.54,0.06c-0.96,0.99-0.93,2.57,0.061,3.53
			C110.752,114.759,112.337,114.714,113.283,113.73z"/>
		<path d="M108.533,52.27c0.01,0,0.01,0,0.02,0c1.279-0.32,2.147-1.633,1.8-3.04c-0.34-1.31-1.72-2.14-3.04-1.8
			c-1.292,0.319-2.156,1.634-1.81,3.04C105.88,51.916,107.376,52.617,108.533,52.27z"/>
		<path d="M97.502,50.6c-30.983,12.246-52.67,42.331-52.67,77.4c0,46.024,37.316,83.17,83.17,83.17
			c46.002,0,83.17-37.298,83.17-83.17c0-45.937-37.233-83.17-83.17-83.17c-3.54,0-7.09,0.23-10.57,0.67
			c-1.37,0.17-2.34,1.43-2.17,2.79c0.17,1.36,1.45,2.35,2.79,2.17c3.28-0.42,6.63-0.63,9.95-0.63
			c43.216,0.02,78.15,34.959,78.17,78.17c-0.02,43.216-34.962,78.149-78.17,78.17c-43.22-0.021-78.15-34.962-78.17-78.17
			c0-32.33,19.43-60.88,49.51-72.74c1.33-0.536,1.892-2.006,1.41-3.25C100.252,50.76,98.772,50.1,97.502,50.6z"/>
		<path d="M57.002,128c0,39.679,32.282,71,70.99,71l0.01-0.05l0.02,0.05c39.126,0,70.98-31.721,70.98-71
			c0-18.269-6.959-36.212-20.54-49.934C164.836,64.29,146.67,57,128.012,57h-0.02C88.768,57,57.002,88.861,57.002,128z
			 M91.576,72.977l8.429,13.406l-13.619,13.619l-13.404-8.428C77.959,84.076,84.119,77.92,91.576,72.977z M91.577,183.021
			c-7.469-4.958-13.655-11.14-18.596-18.595l13.405-8.428l13.619,13.619L91.577,183.021z M164.428,183.021L156,169.617
			l13.619-13.619l13.404,8.427C178.047,171.921,171.903,178.057,164.428,183.021z M164.428,72.979
			c7.393,4.912,13.556,11.012,18.595,18.596l-13.404,8.428L156,86.383L164.428,72.979z M128.002,62
			c11.299,0,22.363,2.884,32.165,8.362l-9.461,15.048c-0.621,0.987-0.477,2.273,0.349,3.098l16.439,16.439
			c0.827,0.828,2.112,0.969,3.099,0.349l15.047-9.461c5.479,9.802,8.362,20.866,8.362,32.165c0,11.299-2.884,22.362-8.362,32.165
			l-15.047-9.461c-0.989-0.622-2.274-0.476-3.099,0.349l-16.439,16.439c-0.825,0.825-0.97,2.111-0.349,3.098l9.465,15.053
			c-9.803,5.472-20.869,8.356-32.169,8.356c-11.299,0-22.363-2.884-32.166-8.362l9.461-15.048c0.621-0.987,0.477-2.273-0.349-3.098
			L88.51,151.053c-0.823-0.825-2.109-0.971-3.099-0.349l-15.053,9.465c-5.471-9.803-8.356-20.869-8.356-32.169
			c0-11.299,2.884-22.363,8.361-32.165l15.048,9.461c0.988,0.621,2.274,0.476,3.099-0.349l16.439-16.439
			c0.825-0.825,0.97-2.111,0.349-3.098l-9.465-15.053C105.645,64.885,116.71,62,128.002,62z"/>
	</g>
</g>
</svg>
